<?xml version="1.0" encoding="utf-8"?>
<svg width="28px" height="28px" viewBox="0 0 28 28" version="1.1" xmlns:xlink="http://www.w3.org/1999/xlink" xmlns="http://www.w3.org/2000/svg">
  <g id="786331-copy-3" transform="translate(0.5 0.5)">
    <path d="M27 13.5C27 20.9558 20.9558 27 13.5 27C6.04416 27 0 20.9558 0 13.5C0 6.04416 6.04416 0 13.5 0C20.9558 0 27 6.04416 27 13.5ZM19.4676 10.708C19.8796 10.2962 19.8796 9.62835 19.4676 9.21636C19.0559 8.80458 18.388 8.80458 17.976 9.21636L11.6463 15.5463L9.02376 12.9238C8.61198 12.5118 7.94415 12.5118 7.53236 12.9238C7.12038 13.3356 7.12038 14.0034 7.53236 14.4152L10.9006 17.7836C11.3126 18.1954 11.9802 18.1954 12.3922 17.7836L19.4676 10.708Z" id="Combined-Shape" fill="#6D9D54" fill-rule="evenodd" stroke="none" />
  </g>
</svg>