<?xml version="1.0" encoding="utf-8"?>
<svg width="107px" height="24px" viewBox="0 0 107 24" version="1.1" xmlns:xlink="http://www.w3.org/1999/xlink" xmlns="http://www.w3.org/2000/svg">
  <defs>
    <path d="M2 4C3.10457 4 4 3.10457 4 2C4 0.895431 3.10457 0 2 0C0.895431 0 0 0.895431 0 2C0 3.10457 0.895431 4 2 4Z" transform="translate(0 9.791992)" id="path_1" />
    <path d="M2 4C3.10457 4 4 3.10457 4 2C4 0.895431 3.10457 0 2 0C0.895431 0 0 0.895431 0 2C0 3.10457 0.895431 4 2 4Z" transform="translate(102 9.791992)" id="path_2" />
    <clipPath id="mask_1">
      <use xlink:href="#path_1" />
    </clipPath>
    <clipPath id="mask_2">
      <use xlink:href="#path_2" />
    </clipPath>
  </defs>
  <g id="Group-5" transform="translate(0.25 0.25)">
    <path d="M-1.56374e-13 0.5L35 0.5" transform="translate(4 11.291992)" id="Line-2-Copy" fill="none" fill-rule="evenodd" stroke="#303030" stroke-width="0.5" stroke-linecap="square" />
    <path d="M3.90799e-14 0.5L35 0.5" transform="translate(67 11.291992)" id="Line-2-Copy-2" fill="none" fill-rule="evenodd" stroke="#303030" stroke-width="0.5" stroke-linecap="square" />
    <path d="M16.0236 0.46699C15.3925 -0.164051 14.367 -0.1543 13.75 0.488641L10.3729 4.00802L2.12273 1.27211L0.392633 3.00224L7.27091 7.2406L3.79492 10.8629L1.56375 10.495L3.66165e-15 12.0587L3.28063 13.21L4.43189 16.4906L5.99564 14.9268L5.62768 12.6957L9.25 9.21972L13.4884 16.098L15.2185 14.3678L12.4826 6.11769L16.0019 2.74059C16.6449 2.12361 16.6547 1.09806 16.0236 0.46699Z" transform="matrix(0.70710677 0.70710677 -0.70710677 0.70710677 51.382812 0)" id="Path" fill="#303030" stroke="none" />
    <path d="M2 4C3.10457 4 4 3.10457 4 2C4 0.895431 3.10457 0 2 0C0.895431 0 0 0.895431 0 2C0 3.10457 0.895431 4 2 4Z" transform="translate(0 9.791992)" id="Oval" fill="none" fill-rule="evenodd" stroke="#303030" stroke-width="0.5" />
    <path d="M2 4C3.10457 4 4 3.10457 4 2C4 0.895431 3.10457 0 2 0C0.895431 0 0 0.895431 0 2C0 3.10457 0.895431 4 2 4Z" transform="translate(102 9.791992)" id="Oval" fill="none" fill-rule="evenodd" stroke="#303030" stroke-width="0.5" />
  </g>
</svg>