<?xml version="1.0" encoding="UTF-8"?>
<svg width="15px" height="15px" viewBox="0 0 15 15" version="1.1" xmlns="http://www.w3.org/2000/svg" xmlns:xlink="http://www.w3.org/1999/xlink">
    <title>exclamation copy</title>
    <g id="Page-1" stroke="none" stroke-width="1" fill="none" fill-rule="evenodd">
        <g id="Quote_example1" transform="translate(-467.000000, -486.000000)" fill="#303030" fill-rule="nonzero">
            <g id="exclamation-copy" transform="translate(467.000000, 486.000000)">
                <path d="M7.5,0 C3.3544043,0 0,3.35469727 0,7.5 C0,11.6455957 3.35469727,15 7.5,15 C11.6455957,15 15,11.6453027 15,7.5 C15,3.3544043 11.6453027,0 7.5,0 Z M7.5,13.828125 C4.0021582,13.828125 1.171875,10.9976074 1.171875,7.5 C1.171875,4.0021582 4.00239258,1.171875 7.5,1.171875 C10.9978418,1.171875 13.828125,4.00239258 13.828125,7.5 C13.828125,10.9978418 10.9976074,13.828125 7.5,13.828125 Z" id="Shape"></path>
                <path d="M7.5,3.77569336 C7.17638672,3.77569336 6.9140625,4.03801758 6.9140625,4.36163086 L6.9140625,8.13486328 C6.9140625,8.45847656 7.17638672,8.72080078 7.5,8.72080078 C7.82361328,8.72080078 8.0859375,8.45847656 8.0859375,8.13486328 L8.0859375,4.36163086 C8.0859375,4.03801758 7.82361328,3.77569336 7.5,3.77569336 Z" id="Path"></path>
                <circle id="Oval" cx="7.5" cy="10.2292969" r="1"></circle>
            </g>
        </g>
    </g>
</svg>